<svg xmlns="http://www.w3.org/2000/svg">
<!-- Lucide icons (ISC licence, https://lucide.dev), self-hosted. Use: <svg class="rcet-icon"><use href="/shared/assets/icons.svg#megaphone"/></svg> -->
<symbol id="arrow-right" viewBox="0 0 24 24"><path d="M5 12h14" />
  <path d="m12 5 7 7-7 7" /></symbol>
<symbol id="arrow-up-right" viewBox="0 0 24 24"><path d="M7 7h10v10" />
  <path d="M7 17 17 7" /></symbol>
<symbol id="brain-circuit" viewBox="0 0 24 24"><path d="M12 5a3 3 0 1 0-5.997.125 4 4 0 0 0-2.526 5.77 4 4 0 0 0 .556 6.588A4 4 0 1 0 12 18Z" />
  <path d="M9 13a4.5 4.5 0 0 0 3-4" />
  <path d="M6.003 5.125A3 3 0 0 0 6.401 6.5" />
  <path d="M3.477 10.896a4 4 0 0 1 .585-.396" />
  <path d="M6 18a4 4 0 0 1-1.967-.516" />
  <path d="M12 13h4" />
  <path d="M12 18h6a2 2 0 0 1 2 2v1" />
  <path d="M12 8h8" />
  <path d="M16 8V5a2 2 0 0 1 2-2" />
  <circle cx="16" cy="13" r=".5" />
  <circle cx="18" cy="3" r=".5" />
  <circle cx="20" cy="21" r=".5" />
  <circle cx="20" cy="8" r=".5" /></symbol>
<symbol id="briefcase" viewBox="0 0 24 24"><path d="M16 20V4a2 2 0 0 0-2-2h-4a2 2 0 0 0-2 2v16" />
  <rect width="20" height="14" x="2" y="6" rx="2" /></symbol>
<symbol id="calendar" viewBox="0 0 24 24"><path d="M8 2v3" />
  <path d="M16 2v3" />
  <rect x="3" y="3" width="18" height="18" rx="2" />
  <path d="M3 9h18" /></symbol>
<symbol id="chart-line" viewBox="0 0 24 24"><path d="M3 3v16a2 2 0 0 0 2 2h16" />
  <path d="m19 9-5 5-4-4-3 3" /></symbol>
<symbol id="coins" viewBox="0 0 24 24"><path d="M13.744 17.736a6 6 0 1 1-7.48-7.48" />
  <path d="M15 6h1v4" />
  <path d="m6.134 14.768.866-.5 2 3.464" />
  <circle cx="16" cy="8" r="6" /></symbol>
<symbol id="cpu" viewBox="0 0 24 24"><path d="M12 20v2" />
  <path d="M12 2v2" />
  <path d="M17 20v2" />
  <path d="M17 2v2" />
  <path d="M2 12h2" />
  <path d="M2 17h2" />
  <path d="M2 7h2" />
  <path d="M20 12h2" />
  <path d="M20 17h2" />
  <path d="M20 7h2" />
  <path d="M7 20v2" />
  <path d="M7 2v2" />
  <rect x="4" y="4" width="16" height="16" rx="2" />
  <rect x="8" y="8" width="8" height="8" rx="1" /></symbol>
<symbol id="external-link" viewBox="0 0 24 24"><path d="M15 3h6v6" />
  <path d="M10 14 21 3" />
  <path d="M18 13v6a2 2 0 0 1-2 2H5a2 2 0 0 1-2-2V8a2 2 0 0 1 2-2h6" /></symbol>
<symbol id="flask-conical" viewBox="0 0 24 24"><path d="M14 2v6a2 2 0 0 0 .245.96l5.51 10.08A2 2 0 0 1 18 22H6a2 2 0 0 1-1.755-2.96l5.51-10.08A2 2 0 0 0 10 8V2" />
  <path d="M6.453 15h11.094" />
  <path d="M8.5 2h7" /></symbol>
<symbol id="globe" viewBox="0 0 24 24"><circle cx="12" cy="12" r="10" />
  <path d="M12 2a14.5 14.5 0 0 0 0 20 14.5 14.5 0 0 0 0-20" />
  <path d="M2 12h20" /></symbol>
<symbol id="handshake" viewBox="0 0 24 24"><path d="m11 17 2 2a1 1 0 1 0 3-3" />
  <path d="m14 14 2.5 2.5a1 1 0 1 0 3-3l-3.88-3.88a3 3 0 0 0-4.24 0l-.88.88a1 1 0 1 1-3-3l2.81-2.81a5.79 5.79 0 0 1 7.06-.87l.47.28a2 2 0 0 0 1.42.25L21 4" />
  <path d="m21 3 1 11h-2" />
  <path d="M3 3 2 14l6.5 6.5a1 1 0 1 0 3-3" />
  <path d="M3 4h8" /></symbol>
<symbol id="layers" viewBox="0 0 24 24"><path d="M12.83 2.18a2 2 0 0 0-1.66 0L2.6 6.08a1 1 0 0 0 0 1.83l8.58 3.91a2 2 0 0 0 1.66 0l8.58-3.9a1 1 0 0 0 0-1.83z" />
  <path d="M2 12a1 1 0 0 0 .58.91l8.6 3.91a2 2 0 0 0 1.65 0l8.58-3.9A1 1 0 0 0 22 12" />
  <path d="M2 17a1 1 0 0 0 .58.91l8.6 3.91a2 2 0 0 0 1.65 0l8.58-3.9A1 1 0 0 0 22 17" /></symbol>
<symbol id="lightbulb" viewBox="0 0 24 24"><path d="M15 14c.2-1 .7-1.7 1.5-2.5 1-.9 1.5-2.2 1.5-3.5A6 6 0 0 0 6 8c0 1 .2 2.2 1.5 3.5.7.7 1.3 1.5 1.5 2.5" />
  <path d="M9 18h6" />
  <path d="M10 22h4" /></symbol>
<symbol id="mail" viewBox="0 0 24 24"><path d="m22 7-8.991 5.727a2 2 0 0 1-2.009 0L2 7" />
  <rect x="2" y="4" width="20" height="16" rx="2" /></symbol>
<symbol id="map-pin" viewBox="0 0 24 24"><path d="M20 10c0 4.993-5.539 10.193-7.399 11.799a1 1 0 0 1-1.202 0C9.539 20.193 4 14.993 4 10a8 8 0 0 1 16 0" />
  <circle cx="12" cy="10" r="3" /></symbol>
<symbol id="megaphone" viewBox="0 0 24 24"><path d="M11 6a13 13 0 0 0 8.4-2.8A1 1 0 0 1 21 4v12a1 1 0 0 1-1.6.8A13 13 0 0 0 11 14H5a2 2 0 0 1-2-2V8a2 2 0 0 1 2-2z" />
  <path d="M6 14a12 12 0 0 0 2.4 7.2 2 2 0 0 0 3.2-2.4A8 8 0 0 1 10 14" />
  <path d="M8 6v8" /></symbol>
<symbol id="rocket" viewBox="0 0 24 24"><path d="M12 15v5s3.03-.55 4-2c1.08-1.62 0-5 0-5" />
  <path d="M4.5 16.5c-1.5 1.26-2 5-2 5s3.74-.5 5-2c.71-.84.7-2.13-.09-2.91a2.18 2.18 0 0 0-2.91-.09" />
  <path d="M9 12a22 22 0 0 1 2-3.95A12.88 12.88 0 0 1 22 2c0 2.72-.78 7.5-6 11a22.4 22.4 0 0 1-4 2z" />
  <path d="M9 12H4s.55-3.03 2-4c1.62-1.08 5 .05 5 .05" /></symbol>
<symbol id="settings" viewBox="0 0 24 24"><path d="M9.671 4.136a2.34 2.34 0 0 1 4.659 0 2.34 2.34 0 0 0 3.319 1.915 2.34 2.34 0 0 1 2.33 4.033 2.34 2.34 0 0 0 0 3.831 2.34 2.34 0 0 1-2.33 4.033 2.34 2.34 0 0 0-3.319 1.915 2.34 2.34 0 0 1-4.659 0 2.34 2.34 0 0 0-3.32-1.915 2.34 2.34 0 0 1-2.33-4.033 2.34 2.34 0 0 0 0-3.831A2.34 2.34 0 0 1 6.35 6.051a2.34 2.34 0 0 0 3.319-1.915" />
  <circle cx="12" cy="12" r="3" /></symbol>
<symbol id="shield" viewBox="0 0 24 24"><path d="M20 13c0 5-3.5 7.5-7.66 8.95a1 1 0 0 1-.67-.01C7.5 20.5 4 18 4 13V6a1 1 0 0 1 1-1c2 0 4.5-1.2 6.24-2.72a1.17 1.17 0 0 1 1.52 0C14.51 3.81 17 5 19 5a1 1 0 0 1 1 1z" /></symbol>
<symbol id="sparkles" viewBox="0 0 24 24"><path d="M11.017 2.814a1 1 0 0 1 1.966 0l1.051 5.558a2 2 0 0 0 1.594 1.594l5.558 1.051a1 1 0 0 1 0 1.966l-5.558 1.051a2 2 0 0 0-1.594 1.594l-1.051 5.558a1 1 0 0 1-1.966 0l-1.051-5.558a2 2 0 0 0-1.594-1.594l-5.558-1.051a1 1 0 0 1 0-1.966l5.558-1.051a2 2 0 0 0 1.594-1.594z" />
  <path d="M20 2v4" />
  <path d="M22 4h-4" />
  <circle cx="4" cy="20" r="2" /></symbol>
<symbol id="users" viewBox="0 0 24 24"><path d="M16 21v-2a4 4 0 0 0-4-4H6a4 4 0 0 0-4 4v2" />
  <path d="M16 3.128a4 4 0 0 1 0 7.744" />
  <path d="M22 21v-2a4 4 0 0 0-3-3.87" />
  <circle cx="9" cy="7" r="4" /></symbol>
</svg>
